<svg xmlns="http://www.w3.org/2000/svg" viewBox="0 0 32 32" fill="none">
  <defs>
    <linearGradient id="g" x1="0%" y1="0%" x2="100%" y2="100%">
      <stop offset="0%" stop-color="#0071e3"/>
      <stop offset="100%" stop-color="#5856d6"/>
    </linearGradient>
  </defs>
  <rect width="32" height="32" rx="7" fill="url(#g)"/>
  <rect x="7" y="5" width="18" height="22" rx="2.5" fill="white" opacity=".95"/>
  <rect x="9" y="7" width="14" height="5" rx="1.2" fill="url(#g)" opacity=".85"/>
  <rect x="9" y="14" width="3.5" height="2.5" rx=".6" fill="#e8e8ed" opacity=".7"/>
  <rect x="13.5" y="14" width="3.5" height="2.5" rx=".6" fill="#e8e8ed" opacity=".7"/>
  <rect x="18" y="14" width="3.5" height="2.5" rx=".6" fill="#e8e8ed" opacity=".7"/>
  <rect x="9" y="17.5" width="3.5" height="2.5" rx=".6" fill="#e8e8ed" opacity=".7"/>
  <rect x="13.5" y="17.5" width="3.5" height="2.5" rx=".6" fill="#e8e8ed" opacity=".7"/>
  <rect x="18" y="17.5" width="3.5" height="2.5" rx=".6" fill="#e8e8ed" opacity=".7"/>
  <rect x="9" y="21" width="3.5" height="2.5" rx=".6" fill="#e8e8ed" opacity=".7"/>
  <rect x="13.5" y="21" width="3.5" height="2.5" rx=".6" fill="#e8e8ed" opacity=".7"/>
  <rect x="18" y="21" width="3.5" height="2.5" rx=".6" fill="#0071e3" opacity=".9"/>
  <rect x="9" y="24" width="12.5" height="2.5" rx=".6" fill="#0071e3" opacity=".8"/>
</svg>
